<svg width="32" height="32" viewBox="0 0 32 32" fill="none" xmlns="http://www.w3.org/2000/svg">
<path d="M14.6343 1.03433L5.03435 10.6343C4.72195 10.9467 4.72195 11.4533 5.03435 11.7657C5.34675 12.0781 5.8533 12.0781 6.16575 11.7657L14.4 3.53138V29.6C14.4 30.0418 14.7581 30.4 15.2 30.4C15.6418 30.4 16 30.0418 16 29.6V3.53138L24.2343 11.7656C24.5467 12.0781 25.0533 12.0781 25.3657 11.7656C25.5219 11.6094 25.6 11.4047 25.6 11.2C25.6 10.9952 25.5219 10.7905 25.3656 10.6343L15.7656 1.03433C15.4532 0.721875 14.9467 0.721875 14.6343 1.03433V1.03433Z" fill="white"/>
</svg>
