<svg width="24" height="24" viewBox="0 0 24 24" fill="none" xmlns="http://www.w3.org/2000/svg">
<g clip-path="url(#clip0_16_211)">
<path d="M23.2248 21.7752L14.6496 13.2L22.3764 5.47318C23.0784 4.77118 23.0784 3.62998 22.3764 2.92798L21.0732 1.62478C20.7336 1.28518 20.2824 1.09918 19.8 1.09918C19.3176 1.09918 18.8664 1.28638 18.5268 1.62478L10.8 9.35158L2.22482 0.776383C1.83482 0.386383 1.28762 0.269983 0.796821 0.472783C0.306021 0.675583 0.0012207 1.14598 0.0012207 1.69918V22.2012C0.0012207 23.1936 0.808821 24.0012 1.80122 24.0012H22.3032C22.8564 24.0012 23.3256 23.6964 23.5296 23.2056C23.7336 22.7148 23.616 22.1676 23.226 21.7776L23.2248 21.7752ZM7.80002 16.8H10.8C10.9596 16.8 11.112 16.7364 11.2248 16.6248L11.4 16.4496L14.1516 19.2012H5.40002C5.06882 19.2012 4.80002 18.9324 4.80002 18.6012V9.84958L7.55162 12.6012L7.37642 12.7764C7.26362 12.8892 7.20122 13.0416 7.20122 13.2012V16.2012C7.20122 16.5324 7.47002 16.8012 7.80122 16.8012L7.80002 16.8ZM10.5516 15.6H8.40002V13.4484L18 3.84838L20.1516 5.99998L10.5516 15.6ZM19.8 2.29798C19.9608 2.29798 20.112 2.36038 20.2248 2.47198L21.528 3.77518C21.762 4.00918 21.762 4.38958 21.528 4.62358L21.0012 5.15038L18.8496 2.99878L19.3764 2.47198C19.4892 2.35918 19.6392 2.29798 19.8012 2.29798H19.8ZM22.4196 22.7448C22.4004 22.7904 22.3452 22.8 22.302 22.8H1.80002C1.46882 22.8 1.20002 22.5312 1.20002 22.2V20.4H1.80002C2.13122 20.4 2.40002 20.1312 2.40002 19.8C2.40002 19.4688 2.13122 19.2 1.80002 19.2H1.20002V16.8H1.80002C2.13122 16.8 2.40002 16.5312 2.40002 16.2C2.40002 15.8688 2.13122 15.6 1.80002 15.6H1.20002V13.2H1.80002C2.13122 13.2 2.40002 12.9312 2.40002 12.6C2.40002 12.2688 2.13122 12 1.80002 12H1.20002V9.59998H1.80002C2.13122 9.59998 2.40002 9.33118 2.40002 8.99998C2.40002 8.66878 2.13122 8.39998 1.80002 8.39998H1.20002V1.69798C1.20002 1.65478 1.20962 1.59958 1.25522 1.58038C1.30082 1.56118 1.34522 1.59358 1.37522 1.62358L9.95042 10.1988L8.39882 11.7504L5.47202 8.82358C4.90082 8.25238 4.40522 8.36998 4.21922 8.44678C4.03322 8.52358 3.60002 8.79118 3.60002 9.59878V18.5988C3.60002 19.5912 4.40762 20.3988 5.40002 20.3988H14.4C15.2088 20.3988 15.4752 19.9656 15.552 19.7796C15.6288 19.5936 15.7464 19.098 15.1752 18.5268L12.2484 15.6L13.8 14.0484L22.3752 22.6236C22.4052 22.6536 22.4376 22.6992 22.4184 22.7436L22.4196 22.7448Z" fill="#3C8085"/>
</g>
<defs>
<clipPath id="clip0_16_211">
<rect width="24" height="24" fill="white"/>
</clipPath>
</defs>
</svg>
