<svg width="24" height="24" viewBox="0 0 24 24" fill="none" xmlns="http://www.w3.org/2000/svg">
<g clip-path="url(#clip0_52_370)">
<path d="M23.846 12.1986C23.7891 12.1354 22.4277 10.6324 20.2988 9.11178C19.5786 8.59735 18.8559 8.14285 18.1374 7.75128L20.207 5.84092C20.4505 5.61614 20.4656 5.23657 20.2409 4.99308C20.0161 4.74955 19.6365 4.73444 19.393 4.95918L16.9894 7.1779C16.8403 7.11033 16.6916 7.04549 16.5433 6.98369C14.9768 6.33097 13.4482 6.00003 12 6.00003C10.5518 6.00003 9.02323 6.33097 7.45675 6.98369C6.22075 7.49868 4.95722 8.2147 3.70128 9.11182C1.5724 10.6324 0.210965 12.1354 0.154041 12.1986C-0.0513469 12.4268 -0.0513469 12.7732 0.154041 13.0014C0.210965 13.0647 1.5724 14.5677 3.70128 16.0883C4.42146 16.6027 5.14409 17.0572 5.86262 17.4488L3.79308 19.3591C3.54959 19.5839 3.5344 19.9635 3.75918 20.207C3.87745 20.3351 4.03859 20.4 4.20021 20.4C4.34571 20.4 4.49166 20.3474 4.60705 20.2409L7.01069 18.0221C7.15975 18.0897 7.30847 18.1545 7.45679 18.2164C9.02323 18.8691 10.5518 19.2 12 19.2C13.4482 19.2 14.9768 18.8691 16.5433 18.2164C17.7793 17.7014 19.0428 16.9854 20.2988 16.0883C22.4277 14.5677 23.7891 13.0647 23.846 13.0014C24.0513 12.7732 24.0513 12.4268 23.846 12.1986V12.1986ZM16.8 11.4C16.8 14.0467 14.6468 16.2 12 16.2C11.1473 16.2 10.346 15.9762 9.65117 15.5847L16.3612 9.39085C16.6472 10.0116 16.8 10.6943 16.8 11.4ZM15.0888 7.72604C15.3179 7.91872 15.5262 8.12995 15.7125 8.35653L8.67197 14.8555C7.76515 13.9818 7.20002 12.7557 7.20002 11.4C7.20002 9.9742 7.82234 8.64183 8.91126 7.72604C9.89818 7.40392 10.941 7.20003 12 7.20003C13.0591 7.20003 14.1019 7.40392 15.0888 7.72604V7.72604ZM4.41996 15.1269C3.03153 14.1376 1.969 13.1373 1.43268 12.6C1.96911 12.0627 3.03164 11.0624 4.41996 10.0732C5.05581 9.62009 5.80746 9.13702 6.63996 8.69872C6.22356 9.52424 6.00002 10.4453 6.00002 11.4C6.00002 13.0693 6.68552 14.5814 7.78949 15.6701L6.7993 16.5841C5.90331 16.1244 5.09612 15.6087 4.41996 15.1269V15.1269ZM19.5801 15.1269C17.7406 16.4376 14.9323 18 12 18C10.6004 18 9.22915 17.6439 7.97792 17.1293L8.73437 16.431C9.6748 17.0436 10.7965 17.4 12 17.4C15.3084 17.4 18 14.7085 18 11.4C18 10.4453 17.7765 9.52428 17.3602 8.69872C18.1926 9.13702 18.9443 9.62009 19.5801 10.0732C20.9685 11.0625 22.031 12.0628 22.5674 12.6C22.0309 13.1374 20.9684 14.1377 19.5801 15.1269V15.1269Z" fill="#C2C2C5"/>
</g>
<defs>
<clipPath id="clip0_52_370">
<rect width="24" height="24" fill="white"/>
</clipPath>
</defs>
</svg>
