<svg width="24" height="24" viewBox="0 0 24 24" fill="none" xmlns="http://www.w3.org/2000/svg">
<g clip-path="url(#clip0_52_367)">
<path d="M23.846 12.1986C23.7891 12.1354 22.4277 10.6324 20.2988 9.11175C19.0428 8.21464 17.7793 7.49865 16.5433 6.98362C14.9768 6.33094 13.4482 6 12 6C10.5518 6 9.02323 6.33094 7.45675 6.98366C6.22075 7.49865 4.95722 8.21468 3.70128 9.11179C1.5724 10.6324 0.210965 12.1354 0.154041 12.1986C-0.0513469 12.4268 -0.0513469 12.7732 0.154041 13.0014C0.210965 13.0646 1.5724 14.5676 3.70128 16.0882C4.95722 16.9854 6.22075 17.7014 7.45675 18.2164C9.02323 18.8691 10.5518 19.2 12 19.2C13.4482 19.2 14.9768 18.8691 16.5433 18.2164C17.7793 17.7014 19.0428 16.9854 20.2988 16.0882C22.4277 14.5676 23.7891 13.0646 23.846 13.0014C24.0513 12.7732 24.0513 12.4268 23.846 12.1986V12.1986ZM15.0888 7.72601C16.1777 8.6418 16.8 9.97421 16.8 11.4C16.8 14.0467 14.6467 16.2 12 16.2C9.35327 16.2 7.20002 14.0467 7.20002 11.4C7.20002 9.97418 7.82237 8.64176 8.9113 7.72601C9.89818 7.40389 10.941 7.2 12 7.2C13.0591 7.2 14.1019 7.40389 15.0888 7.72601ZM19.5801 15.1269C17.7406 16.4376 14.9323 18 12 18C9.06779 18 6.25949 16.4376 4.41996 15.1269C3.03153 14.1376 1.969 13.1373 1.43268 12.6C1.96911 12.0626 3.03164 11.0624 4.41996 10.0731C5.05581 9.62006 5.80746 9.13699 6.63996 8.69869C6.22356 9.52425 6.00002 10.4453 6.00002 11.4C6.00002 14.7084 8.69162 17.4 12 17.4C15.3085 17.4 18 14.7084 18 11.4C18 10.4453 17.7765 9.52425 17.3602 8.69869C18.1926 9.13699 18.9443 9.62006 19.5801 10.0731C20.9685 11.0624 22.031 12.0627 22.5674 12.6C22.0309 13.1374 20.9684 14.1377 19.5801 15.1269Z" fill="#C2C2C5"/>
</g>
<defs>
<clipPath id="clip0_52_367">
<rect width="24" height="24" fill="white"/>
</clipPath>
</defs>
</svg>
