<svg width="32" height="32" viewBox="0 0 32 32" fill="none" xmlns="http://www.w3.org/2000/svg">
<g clip-path="url(#clip0_59_441)">
<path d="M0.800202 32C0.785802 32 0.771402 32 0.757002 31.9984C0.321802 31.9744 -0.0141981 31.608 0.000201899 31.1744C0.189002 25.3264 1.7538 20.0704 4.6514 15.5552C7.0306 11.848 10.2994 8.6416 14.3666 6.0272C18.2482 3.5328 22.0946 2.0784 24.6402 1.2976C27.5634 0.4016 30.0402 0 31.2002 0C31.6418 0 32.0002 0.3584 32.0002 0.8C32.0002 1.2416 31.6418 1.6 31.2002 1.6C29.3346 1.6 22.085 2.968 15.2322 7.3728C12.2162 9.312 8.8882 12.1136 6.2722 16.0432C7.1794 15.4736 8.2226 15.1136 9.4258 14.9536C10.9506 14.7504 12.5538 14.8832 14.1042 15.0112C16.4354 15.2048 18.637 15.3872 20.4402 14.4848C23.4258 12.992 25.7346 9.9504 25.7586 9.92C26.0242 9.5664 26.525 9.496 26.8786 9.7616C27.2322 10.0272 27.3026 10.528 27.0386 10.8816C26.9362 11.0192 24.4866 14.2512 21.157 15.9168C18.9538 17.0192 16.4226 16.8096 13.9746 16.6064C11.0066 16.36 8.2034 16.128 6.165 18.1664C2.3378 21.9936 1.6034 31.168 1.597 31.2608C1.565 31.68 1.2162 32 0.800202 32V32Z" fill="#4A9599"/>
<path d="M18.4 9.60005C18.0912 9.60005 17.7968 9.41925 17.6656 9.11845C17.4896 8.71365 17.6752 8.24165 18.0816 8.06565C21.2352 6.69765 28.3792 4.80005 29.6 4.80005C30.0416 4.80005 30.4 5.15845 30.4 5.60005C30.4 6.04165 30.0416 6.40005 29.6 6.40005C28.7552 6.40005 21.9312 8.14085 18.7184 9.53445C18.6144 9.57925 18.5072 9.60005 18.4 9.60005Z" fill="#4A9599"/>
</g>
<defs>
<clipPath id="clip0_59_441">
<rect width="32" height="32" fill="white"/>
</clipPath>
</defs>
</svg>
