<svg width="24" height="24" viewBox="0 0 24 24" fill="none" xmlns="http://www.w3.org/2000/svg">
<g clip-path="url(#clip0_48_15)">
<path d="M16.1999 7.20002H13.8C13.4686 7.20002 13.2 6.93137 13.2 6.60002V3.00002C13.2 2.66867 13.4686 2.40002 13.8 2.40002H16.1999C16.5313 2.40002 16.7999 2.66867 16.7999 3.00002V6.60002C16.7999 6.93137 16.5313 7.20002 16.1999 7.20002ZM14.4 6.00002H15.6V3.60002H14.4V6.00002Z" fill="white"/>
<path d="M23.8242 3.17573L20.8242 0.175725C20.7117 0.063225 20.5591 0 20.4 0H0.6C0.26865 0 0 0.26865 0 0.6V23.4C0 23.7314 0.26865 24 0.6 24H23.4C23.7314 24 24 23.7314 24 23.4V3.6C24 3.44085 23.9368 3.28826 23.8242 3.17573ZM7.2 1.2H18V8.4H7.2V1.2ZM19.2 22.8H4.8V13.2H19.2V22.8ZM22.8 22.8H20.4V12.6C20.4 12.2686 20.1314 12 19.8 12H4.2C3.86865 12 3.6 12.2686 3.6 12.6V22.8H1.2V1.2H6V9C6 9.33135 6.26865 9.6 6.6 9.6H18.6C18.9314 9.6 19.2 9.33135 19.2 9V1.2H20.1515L22.8 3.84851V22.8Z" fill="white"/>
</g>
<defs>
<clipPath id="clip0_48_15">
<rect width="24" height="24" fill="white"/>
</clipPath>
</defs>
</svg>
