<svg width="340" height="44" viewBox="0 0 340 44" fill="none" xmlns="http://www.w3.org/2000/svg">
<rect x="22" y="4" width="16" height="16" rx="8" fill="#BDE2D6"/>
<path d="M0 22H38.8235C39.4733 22 40 22.5267 40 23.1765V23.1765C40 33.5724 31.5724 42 21.1765 42H20C8.95431 42 0 33.0457 0 22V22Z" fill="#DDB488"/>
<path d="M0 21.2C0 10.5961 8.59613 2 19.2 2V2C19.6418 2 20 2.35817 20 2.8V22H0V21.2Z" fill="#99C6AF"/>
<path d="M66 2H78C82.4183 2 86 5.58172 86 10V22H66V2Z" fill="#BDE2D6"/>
<path d="M66 22H86V34C86 38.4183 82.4183 42 78 42H66V22Z" fill="#F2B7B3"/>
<path d="M46 22H66V42H54C49.5817 42 46 38.4183 46 34V22Z" fill="#BDE2D6"/>
<path d="M46 10C46 5.58172 49.5817 2 54 2H66V22H46V10Z" fill="#87B7C9"/>
<path d="M112 2H124C128.418 2 132 5.58172 132 10V22H112V2Z" fill="#99C6AF"/>
<path d="M112 22H132V34C132 38.4183 128.418 42 124 42H114C112.895 42 112 41.1046 112 40V22Z" fill="#BDE2D6"/>
<rect x="94" y="24" width="16" height="16" rx="8" fill="#9CADDA"/>
<path d="M92 10C92 5.58172 95.5817 2 100 2H112V22H94C92.8954 22 92 21.1046 92 20V10Z" fill="#BDE2D6"/>
<path d="M152.996 34.324C150.692 34.324 148.652 33.796 146.876 32.74C145.124 31.66 143.744 30.172 142.736 28.276C141.752 26.356 141.26 24.16 141.26 21.688C141.26 19.624 141.596 17.824 142.268 16.288C142.94 14.752 143.852 13.468 145.004 12.436C146.156 11.404 147.452 10.636 148.892 10.132C150.332 9.604 151.832 9.34 153.392 9.34C154.832 9.34 156.2 9.496 157.496 9.808C158.792 10.12 160.088 10.588 161.384 11.212C161.216 12.052 161.108 12.952 161.06 13.912C161.012 14.848 160.988 15.808 160.988 16.792C160.676 16.936 160.292 17.044 159.836 17.116C159.404 17.164 158.972 17.188 158.54 17.188C158.492 15.628 158.264 14.416 157.856 13.552C157.448 12.688 156.884 12.088 156.164 11.752C155.444 11.416 154.604 11.248 153.644 11.248C152.3 11.248 151.148 11.512 150.188 12.04C149.252 12.568 148.484 13.276 147.884 14.164C147.308 15.052 146.876 16.06 146.588 17.188C146.324 18.316 146.192 19.492 146.192 20.716C146.192 22.78 146.516 24.652 147.164 26.332C147.836 28.012 148.796 29.332 150.044 30.292C151.316 31.252 152.876 31.732 154.724 31.732C155.756 31.732 156.824 31.564 157.928 31.228C159.032 30.892 160.076 30.424 161.06 29.824C161.252 29.968 161.42 30.184 161.564 30.472C161.708 30.736 161.804 30.988 161.852 31.228C160.604 32.212 159.284 32.98 157.892 33.532C156.5 34.06 154.868 34.324 152.996 34.324ZM173.245 34.324C171.469 34.324 169.933 33.976 168.637 33.28C167.341 32.584 166.345 31.6 165.649 30.328C164.977 29.056 164.641 27.568 164.641 25.864C164.641 24.088 165.013 22.552 165.757 21.256C166.525 19.96 167.569 18.964 168.889 18.268C170.209 17.548 171.697 17.188 173.353 17.188C175.225 17.188 176.797 17.548 178.069 18.268C179.365 18.988 180.349 19.984 181.021 21.256C181.693 22.528 182.029 23.992 182.029 25.648C182.029 27.376 181.657 28.888 180.913 30.184C180.193 31.48 179.173 32.5 177.853 33.244C176.557 33.964 175.021 34.324 173.245 34.324ZM173.677 32.272C174.901 32.272 175.825 31.72 176.449 30.616C177.073 29.488 177.385 28.06 177.385 26.332C177.385 24.82 177.181 23.536 176.773 22.48C176.365 21.4 175.825 20.584 175.153 20.032C174.481 19.48 173.749 19.204 172.957 19.204C171.709 19.204 170.785 19.744 170.185 20.824C169.585 21.904 169.285 23.26 169.285 24.892C169.285 26.38 169.465 27.688 169.825 28.816C170.185 29.92 170.689 30.772 171.337 31.372C171.985 31.972 172.765 32.272 173.677 32.272ZM187.131 26.404V22.948C187.131 22.3 187.071 21.784 186.951 21.4C186.855 21.016 186.615 20.728 186.231 20.536C185.871 20.344 185.295 20.224 184.503 20.176C184.503 19.84 184.527 19.528 184.575 19.24C184.623 18.928 184.719 18.652 184.863 18.412C185.943 18.364 187.023 18.22 188.103 17.98C189.207 17.74 190.047 17.476 190.623 17.188C190.887 17.284 191.103 17.476 191.271 17.764C191.463 18.028 191.559 18.436 191.559 18.988L187.131 26.404ZM202.647 29.032C202.647 30.256 202.803 31.084 203.115 31.516C203.427 31.948 203.919 32.164 204.591 32.164C204.711 32.428 204.783 32.716 204.807 33.028C204.831 33.316 204.843 33.676 204.843 34.108C204.315 34.06 203.667 34.024 202.899 34C202.131 34 201.363 34 200.595 34C200.091 34 199.527 34 198.903 34C198.303 34.024 197.727 34.036 197.175 34.036C196.623 34.06 196.155 34.084 195.771 34.108C195.771 33.724 195.783 33.376 195.807 33.064C195.855 32.728 195.927 32.428 196.023 32.164C196.767 32.164 197.319 31.936 197.679 31.48C198.063 31 198.255 30.136 198.255 28.888V24.388C198.255 22.78 197.979 21.688 197.427 21.112C196.899 20.512 196.179 20.212 195.267 20.212C194.667 20.212 194.079 20.428 193.503 20.86C192.927 21.268 192.459 21.904 192.099 22.768C191.739 23.632 191.559 24.736 191.559 26.08V29.032C191.559 30.232 191.727 31.06 192.063 31.516C192.399 31.948 192.975 32.164 193.791 32.164C193.887 32.452 193.947 32.752 193.971 33.064C193.995 33.352 194.007 33.7 194.007 34.108C193.671 34.084 193.239 34.06 192.711 34.036C192.183 34.036 191.619 34.024 191.019 34C190.443 34 189.879 34 189.327 34C188.823 34 188.259 34 187.635 34C187.011 34.024 186.411 34.036 185.835 34.036C185.283 34.06 184.827 34.084 184.467 34.108C184.467 33.7 184.479 33.328 184.503 32.992C184.551 32.656 184.623 32.38 184.719 32.164C185.655 32.164 186.291 31.948 186.627 31.516C186.963 31.06 187.131 30.232 187.131 29.032V22.948L191.559 18.988C191.559 19.276 191.535 19.612 191.487 19.996C191.439 20.356 191.355 20.74 191.235 21.148C191.355 20.908 191.463 20.668 191.559 20.428C191.679 20.188 191.847 19.96 192.063 19.744C192.519 19.192 193.179 18.664 194.043 18.16C194.931 17.632 195.975 17.368 197.175 17.368C198.135 17.368 199.035 17.56 199.875 17.944C200.715 18.328 201.387 18.952 201.891 19.816C202.395 20.656 202.647 21.796 202.647 23.236V29.032ZM219.595 18.376C219.571 18.976 219.559 19.6 219.559 20.248C219.559 20.896 219.607 21.532 219.703 22.156C219.415 22.348 219.055 22.492 218.623 22.588C218.215 22.684 217.783 22.732 217.327 22.732C217.279 22.084 217.099 21.484 216.787 20.932C216.499 20.38 216.091 19.936 215.563 19.6C215.035 19.264 214.399 19.096 213.655 19.096C213.031 19.096 212.527 19.252 212.143 19.564C211.783 19.876 211.603 20.284 211.603 20.788C211.603 21.148 211.687 21.484 211.855 21.796C212.023 22.084 212.395 22.396 212.971 22.732C213.547 23.068 214.447 23.476 215.671 23.956C216.991 24.46 218.035 24.964 218.803 25.468C219.571 25.948 220.111 26.488 220.423 27.088C220.735 27.688 220.891 28.396 220.891 29.212C220.891 30.268 220.591 31.18 219.991 31.948C219.391 32.716 218.551 33.304 217.471 33.712C216.391 34.12 215.143 34.324 213.727 34.324C212.263 34.324 211.063 34.216 210.127 34C209.215 33.784 208.327 33.46 207.463 33.028C207.511 32.62 207.535 32.14 207.535 31.588C207.559 31.036 207.571 30.496 207.571 29.968C207.571 29.416 207.547 28.948 207.499 28.564C207.763 28.396 208.123 28.276 208.579 28.204C209.059 28.108 209.515 28.06 209.947 28.06C210.115 29.452 210.535 30.496 211.207 31.192C211.879 31.888 212.755 32.236 213.835 32.236C214.675 32.236 215.323 32.056 215.779 31.696C216.259 31.336 216.499 30.856 216.499 30.256C216.499 29.872 216.403 29.536 216.211 29.248C216.019 28.936 215.659 28.636 215.131 28.348C214.627 28.036 213.871 27.688 212.863 27.304C211.687 26.824 210.703 26.356 209.911 25.9C209.143 25.444 208.567 24.892 208.183 24.244C207.799 23.596 207.607 22.78 207.607 21.796C207.607 21.004 207.787 20.32 208.147 19.744C208.531 19.168 209.035 18.688 209.659 18.304C210.283 17.92 210.979 17.644 211.747 17.476C212.515 17.284 213.283 17.188 214.051 17.188C215.251 17.188 216.283 17.296 217.147 17.512C218.011 17.704 218.827 17.992 219.595 18.376ZM231.806 34.324C229.91 34.324 228.35 33.952 227.126 33.208C225.926 32.44 225.026 31.408 224.426 30.112C223.85 28.816 223.562 27.388 223.562 25.828C223.562 24.172 223.886 22.696 224.534 21.4C225.182 20.104 226.106 19.084 227.306 18.34C228.506 17.572 229.922 17.188 231.554 17.188C233.21 17.188 234.554 17.524 235.586 18.196C236.618 18.844 237.386 19.744 237.89 20.896C238.418 22.048 238.718 23.344 238.79 24.784C238.646 25.384 238.394 25.888 238.034 26.296C237.506 26.296 236.81 26.296 235.946 26.296C235.106 26.296 234.182 26.308 233.174 26.332C232.166 26.332 231.134 26.356 230.078 26.404C229.046 26.452 228.062 26.5 227.126 26.548V24.388H234.326C234.326 22.78 234.074 21.52 233.57 20.608C233.066 19.672 232.334 19.204 231.374 19.204C230.798 19.204 230.258 19.396 229.754 19.78C229.274 20.14 228.878 20.74 228.566 21.58C228.278 22.396 228.134 23.512 228.134 24.928C228.134 26.152 228.278 27.292 228.566 28.348C228.878 29.404 229.406 30.256 230.15 30.904C230.894 31.552 231.926 31.876 233.246 31.876C234.062 31.876 234.866 31.72 235.658 31.408C236.45 31.072 237.134 30.616 237.71 30.04C237.926 30.16 238.13 30.376 238.322 30.688C238.514 31 238.61 31.3 238.61 31.588C237.746 32.548 236.75 33.244 235.622 33.676C234.518 34.108 233.246 34.324 231.806 34.324ZM244.049 26.404V22.948C244.049 22.3 243.989 21.784 243.869 21.4C243.773 21.016 243.533 20.728 243.149 20.536C242.789 20.344 242.213 20.224 241.421 20.176C241.421 19.84 241.445 19.528 241.493 19.24C241.541 18.928 241.637 18.652 241.781 18.412C242.861 18.364 243.941 18.22 245.021 17.98C246.125 17.74 246.965 17.476 247.541 17.188C247.805 17.284 248.021 17.476 248.189 17.764C248.381 18.028 248.477 18.436 248.477 18.988L244.049 26.404ZM259.565 29.032C259.565 30.256 259.721 31.084 260.033 31.516C260.345 31.948 260.837 32.164 261.509 32.164C261.629 32.428 261.701 32.716 261.725 33.028C261.749 33.316 261.761 33.676 261.761 34.108C261.233 34.06 260.585 34.024 259.817 34C259.049 34 258.281 34 257.513 34C257.009 34 256.445 34 255.821 34C255.221 34.024 254.645 34.036 254.093 34.036C253.541 34.06 253.073 34.084 252.689 34.108C252.689 33.724 252.701 33.376 252.725 33.064C252.773 32.728 252.845 32.428 252.941 32.164C253.685 32.164 254.237 31.936 254.597 31.48C254.981 31 255.173 30.136 255.173 28.888V24.388C255.173 22.78 254.897 21.688 254.345 21.112C253.817 20.512 253.097 20.212 252.185 20.212C251.585 20.212 250.997 20.428 250.421 20.86C249.845 21.268 249.377 21.904 249.017 22.768C248.657 23.632 248.477 24.736 248.477 26.08V29.032C248.477 30.232 248.645 31.06 248.981 31.516C249.317 31.948 249.893 32.164 250.709 32.164C250.805 32.452 250.865 32.752 250.889 33.064C250.913 33.352 250.925 33.7 250.925 34.108C250.589 34.084 250.157 34.06 249.629 34.036C249.101 34.036 248.537 34.024 247.937 34C247.361 34 246.797 34 246.245 34C245.741 34 245.177 34 244.553 34C243.929 34.024 243.329 34.036 242.753 34.036C242.201 34.06 241.745 34.084 241.385 34.108C241.385 33.7 241.397 33.328 241.421 32.992C241.469 32.656 241.541 32.38 241.637 32.164C242.573 32.164 243.209 31.948 243.545 31.516C243.881 31.06 244.049 30.232 244.049 29.032V22.948L248.477 18.988C248.477 19.276 248.453 19.612 248.405 19.996C248.357 20.356 248.273 20.74 248.153 21.148C248.273 20.908 248.381 20.668 248.477 20.428C248.597 20.188 248.765 19.96 248.981 19.744C249.437 19.192 250.097 18.664 250.961 18.16C251.849 17.632 252.893 17.368 254.093 17.368C255.053 17.368 255.953 17.56 256.793 17.944C257.633 18.328 258.305 18.952 258.809 19.816C259.313 20.656 259.565 21.796 259.565 23.236V29.032ZM270.685 34.324C269.101 34.324 267.913 33.916 267.121 33.1C266.353 32.284 265.969 30.94 265.969 29.068V20.32C265.609 20.176 265.225 20.068 264.817 19.996C264.433 19.924 263.941 19.876 263.341 19.852C263.341 19.468 263.365 19.132 263.413 18.844C263.485 18.532 263.593 18.208 263.737 17.872H265.969V13.3C266.641 13.18 267.301 12.976 267.949 12.688C268.621 12.376 269.173 12.04 269.605 11.68C269.917 11.8 270.121 11.98 270.217 12.22C270.313 12.46 270.361 12.976 270.361 13.768V17.872H274.897C274.897 18.232 274.873 18.58 274.825 18.916C274.777 19.252 274.693 19.576 274.573 19.888C273.733 19.888 272.965 19.936 272.269 20.032C271.597 20.128 270.961 20.248 270.361 20.392V28.42C270.361 29.308 270.433 30.016 270.577 30.544C270.745 31.072 270.973 31.444 271.261 31.66C271.549 31.876 271.909 31.984 272.341 31.984C272.773 31.984 273.169 31.924 273.529 31.804C273.913 31.684 274.273 31.516 274.609 31.3C274.945 31.708 275.125 32.224 275.149 32.848C274.717 33.256 274.069 33.604 273.205 33.892C272.365 34.18 271.525 34.324 270.685 34.324ZM277.1 34.108C277.1 33.748 277.112 33.4 277.136 33.064C277.16 32.728 277.22 32.428 277.316 32.164C278.276 32.14 278.924 31.912 279.26 31.48C279.596 31.048 279.764 30.232 279.764 29.032V13.588C279.764 13.06 279.692 12.628 279.548 12.292C279.428 11.932 279.176 11.668 278.792 11.5C278.408 11.308 277.832 11.2 277.064 11.176C277.064 10.84 277.088 10.528 277.136 10.24C277.184 9.928 277.28 9.652 277.424 9.412C278.072 9.412 278.78 9.352 279.548 9.232C280.34 9.112 281.072 8.956 281.744 8.764C282.416 8.572 282.908 8.38 283.22 8.188C283.484 8.284 283.7 8.464 283.868 8.728C284.06 8.992 284.156 9.388 284.156 9.916V29.032C284.156 30.232 284.312 31.048 284.624 31.48C284.96 31.912 285.536 32.14 286.352 32.164C286.448 32.428 286.508 32.74 286.532 33.1C286.556 33.46 286.568 33.796 286.568 34.108C286.208 34.084 285.764 34.06 285.236 34.036C284.732 34.036 284.18 34.024 283.58 34C283.004 34 282.428 34 281.852 34C281.276 34 280.688 34 280.088 34C279.488 34.024 278.924 34.036 278.396 34.036C277.892 34.06 277.46 34.084 277.1 34.108ZM288.916 34.108C288.916 33.748 288.928 33.4 288.952 33.064C289 32.728 289.072 32.428 289.168 32.164C290.128 32.14 290.764 31.912 291.076 31.48C291.412 31.048 291.58 30.232 291.58 29.032V22.732C291.58 22.156 291.52 21.688 291.4 21.328C291.28 20.968 291.028 20.692 290.644 20.5C290.26 20.308 289.684 20.2 288.916 20.176C288.916 19.84 288.94 19.528 288.988 19.24C289.036 18.928 289.132 18.652 289.276 18.412C289.9 18.412 290.596 18.352 291.364 18.232C292.156 18.112 292.888 17.956 293.56 17.764C294.232 17.572 294.724 17.38 295.036 17.188C295.324 17.284 295.552 17.464 295.72 17.728C295.912 17.992 296.008 18.388 296.008 18.916V29.032C296.008 30.232 296.164 31.048 296.476 31.48C296.788 31.912 297.364 32.14 298.204 32.164C298.3 32.428 298.36 32.74 298.384 33.1C298.408 33.46 298.42 33.796 298.42 34.108C298.036 34.084 297.58 34.06 297.052 34.036C296.548 34.036 296.008 34.024 295.432 34C294.856 34 294.28 34 293.704 34C293.128 34 292.54 34 291.94 34C291.34 34.024 290.776 34.036 290.248 34.036C289.744 34.06 289.3 34.084 288.916 34.108ZM293.416 13.876C292.648 13.876 292.012 13.66 291.508 13.228C291.028 12.772 290.788 12.208 290.788 11.536C290.788 10.744 291.052 10.132 291.58 9.7C292.108 9.244 292.744 9.016 293.488 9.016C294.328 9.016 294.988 9.244 295.468 9.7C295.972 10.132 296.224 10.732 296.224 11.5C296.224 12.148 295.96 12.712 295.432 13.192C294.904 13.648 294.232 13.876 293.416 13.876ZM311.921 17.872C311.921 18.232 311.897 18.604 311.849 18.988C311.801 19.348 311.705 19.66 311.561 19.924C310.865 19.924 310.205 19.972 309.581 20.068C308.981 20.14 308.393 20.272 307.817 20.464V17.872H311.921ZM303.641 16.576C303.641 14.704 304.013 13.156 304.757 11.932C305.525 10.708 306.509 9.796 307.709 9.196C308.933 8.572 310.253 8.26 311.669 8.26C312.629 8.26 313.433 8.356 314.081 8.548C314.753 8.74 315.305 8.98 315.737 9.268C315.665 9.988 315.617 10.744 315.593 11.536C315.569 12.328 315.569 13.048 315.593 13.696C315.233 13.84 314.789 13.936 314.261 13.984C313.733 14.032 313.253 14.056 312.821 14.056C312.821 13 312.617 12.148 312.209 11.5C311.825 10.828 311.201 10.492 310.337 10.492C309.809 10.492 309.365 10.672 309.005 11.032C308.669 11.368 308.429 11.896 308.285 12.616C308.141 13.312 308.069 14.248 308.069 15.424V27.052H303.641V16.576ZM304.325 17.872V20.428C303.677 20.212 303.041 20.068 302.417 19.996C301.793 19.924 301.265 19.888 300.833 19.888C300.833 19.504 300.869 19.144 300.941 18.808C301.037 18.448 301.169 18.136 301.337 17.872H304.325ZM308.069 28.132C308.069 29.164 308.177 29.968 308.393 30.544C308.609 31.096 308.969 31.492 309.473 31.732C310.001 31.948 310.673 32.092 311.489 32.164C311.585 32.404 311.645 32.692 311.669 33.028C311.693 33.364 311.705 33.724 311.705 34.108C311.321 34.084 310.841 34.06 310.265 34.036C309.713 34.036 309.113 34.024 308.465 34C307.841 34 307.205 34 306.557 34C305.573 34 304.541 34 303.461 34C302.405 34.024 301.577 34.06 300.977 34.108C300.977 33.676 300.989 33.304 301.013 32.992C301.061 32.68 301.121 32.404 301.193 32.164C301.841 32.116 302.345 31.996 302.705 31.804C303.065 31.612 303.305 31.276 303.425 30.796C303.569 30.316 303.641 29.632 303.641 28.744V25.828H308.069V28.132ZM327.041 23.272C327.617 21.856 327.773 20.896 327.509 20.392C327.245 19.888 326.645 19.552 325.709 19.384C325.613 19.096 325.541 18.784 325.493 18.448C325.445 18.112 325.421 17.776 325.421 17.44C325.973 17.464 326.549 17.488 327.149 17.512C327.749 17.512 328.361 17.512 328.985 17.512C329.633 17.512 330.257 17.512 330.857 17.512C331.457 17.488 332.021 17.452 332.549 17.404C332.549 17.716 332.525 18.052 332.477 18.412C332.453 18.748 332.381 19.072 332.261 19.384C331.853 19.48 331.505 19.636 331.217 19.852C330.929 20.068 330.653 20.404 330.389 20.86C330.149 21.316 329.849 21.94 329.489 22.732L324.197 35.332C323.525 36.964 322.913 38.284 322.361 39.292C321.809 40.3 321.281 41.068 320.777 41.596C320.297 42.124 319.805 42.484 319.301 42.676C318.821 42.868 318.293 42.964 317.717 42.964C316.973 42.964 316.325 42.832 315.773 42.568C315.245 42.328 314.837 42.064 314.549 41.776C314.453 41.368 314.429 40.864 314.477 40.264C314.525 39.664 314.609 39.16 314.729 38.752C315.137 38.848 315.593 38.932 316.097 39.004C316.601 39.076 317.117 39.112 317.645 39.112C318.389 39.112 319.049 38.956 319.625 38.644C320.201 38.356 320.705 37.864 321.137 37.168C321.401 36.76 321.845 35.86 322.469 34.468C323.117 33.1 323.813 31.456 324.557 29.536L327.041 23.272ZM322.505 35.188C321.929 33.868 321.305 32.476 320.633 31.012C319.961 29.548 319.313 28.12 318.689 26.728C318.089 25.336 317.537 24.136 317.033 23.128C316.553 22.12 316.145 21.364 315.809 20.86C315.473 20.356 315.149 20.008 314.837 19.816C314.549 19.6 314.225 19.456 313.865 19.384C313.769 19.12 313.697 18.82 313.649 18.484C313.601 18.124 313.577 17.776 313.577 17.44C314.273 17.464 315.017 17.488 315.809 17.512C316.601 17.512 317.369 17.512 318.113 17.512C318.881 17.512 319.757 17.512 320.741 17.512C321.749 17.488 322.625 17.464 323.369 17.44C323.369 17.8 323.333 18.16 323.261 18.52C323.213 18.856 323.141 19.144 323.045 19.384C321.869 19.576 321.197 19.912 321.029 20.392C320.885 20.872 321.113 21.724 321.713 22.948C322.073 23.644 322.445 24.448 322.829 25.36C323.237 26.248 323.621 27.16 323.981 28.096C324.365 29.008 324.701 29.872 324.989 30.688L322.505 35.188ZM334.489 34.324C333.601 34.324 332.905 34.072 332.401 33.568C331.897 33.064 331.645 32.404 331.645 31.588C331.645 30.772 331.933 30.1 332.509 29.572C333.085 29.044 333.805 28.78 334.669 28.78C335.533 28.78 336.205 29.068 336.685 29.644C337.189 30.196 337.441 30.784 337.441 31.408C337.441 32.32 337.153 33.04 336.577 33.568C336.025 34.072 335.329 34.324 334.489 34.324Z" fill="#707076"/>
</svg>
