<svg width="82" height="44" viewBox="0 0 82 44" fill="none" xmlns="http://www.w3.org/2000/svg">
<path d="M20 2H32C36.4183 2 40 5.58172 40 10V22H20V2Z" fill="#BDE2D6"/>
<path d="M20 22H40V34C40 38.4183 36.4183 42 32 42H20V22Z" fill="#F8D7D5"/>
<path d="M0 22H20V42H8C3.58172 42 0 38.4183 0 34V22Z" fill="#BDE2D6"/>
<path d="M0 10C0 5.58172 3.58172 2 8 2H20V22H0V10Z" fill="#87B7C9"/>
<path d="M60.996 34.324C58.692 34.324 56.652 33.796 54.876 32.74C53.124 31.66 51.744 30.172 50.736 28.276C49.752 26.356 49.26 24.16 49.26 21.688C49.26 19.624 49.596 17.824 50.268 16.288C50.94 14.752 51.852 13.468 53.004 12.436C54.156 11.404 55.452 10.636 56.892 10.132C58.332 9.604 59.832 9.34 61.392 9.34C62.832 9.34 64.2 9.496 65.496 9.808C66.792 10.12 68.088 10.588 69.384 11.212C69.216 12.052 69.108 12.952 69.06 13.912C69.012 14.848 68.988 15.808 68.988 16.792C68.676 16.936 68.292 17.044 67.836 17.116C67.404 17.164 66.972 17.188 66.54 17.188C66.492 15.628 66.264 14.416 65.856 13.552C65.448 12.688 64.884 12.088 64.164 11.752C63.444 11.416 62.604 11.248 61.644 11.248C60.3 11.248 59.148 11.512 58.188 12.04C57.252 12.568 56.484 13.276 55.884 14.164C55.308 15.052 54.876 16.06 54.588 17.188C54.324 18.316 54.192 19.492 54.192 20.716C54.192 22.78 54.516 24.652 55.164 26.332C55.836 28.012 56.796 29.332 58.044 30.292C59.316 31.252 60.876 31.732 62.724 31.732C63.756 31.732 64.824 31.564 65.928 31.228C67.032 30.892 68.076 30.424 69.06 29.824C69.252 29.968 69.42 30.184 69.564 30.472C69.708 30.736 69.804 30.988 69.852 31.228C68.604 32.212 67.284 32.98 65.892 33.532C64.5 34.06 62.868 34.324 60.996 34.324ZM76.0246 34.324C75.1366 34.324 74.4406 34.072 73.9366 33.568C73.4326 33.064 73.1806 32.404 73.1806 31.588C73.1806 30.772 73.4686 30.1 74.0446 29.572C74.6206 29.044 75.3406 28.78 76.2046 28.78C77.0686 28.78 77.7406 29.068 78.2206 29.644C78.7246 30.196 78.9766 30.784 78.9766 31.408C78.9766 32.32 78.6886 33.04 78.1126 33.568C77.5606 34.072 76.8646 34.324 76.0246 34.324Z" fill="#707076"/>
</svg>
