<svg width="24" height="24" viewBox="0 0 24 24" fill="none" xmlns="http://www.w3.org/2000/svg">
<path d="M17.4 24H1.8C0.8076 24 0 23.1924 0 22.2V3.00001C0 2.00761 0.8076 1.20001 1.8 1.20001H17.4C18.3924 1.20001 19.2 2.00761 19.2 3.00001V5.40001C19.2 5.73121 18.9312 6.00001 18.6 6.00001C18.2688 6.00001 18 5.73121 18 5.40001V3.00001C18 2.66881 17.7312 2.40001 17.4 2.40001H1.8C1.4688 2.40001 1.2 2.66881 1.2 3.00001V22.2C1.2 22.5312 1.4688 22.8 1.8 22.8H17.4C17.7312 22.8 18 22.5312 18 22.2V17.4C18 17.0688 18.2688 16.8 18.6 16.8C18.9312 16.8 19.2 17.0688 19.2 17.4V22.2C19.2 23.1924 18.3924 24 17.4 24Z" fill="#C2C2C5"/>
<path d="M12.6 5.99999H4.19998C3.86878 5.99999 3.59998 5.73119 3.59998 5.39999C3.59998 5.06879 3.86878 4.79999 4.19998 4.79999H12.6C12.9312 4.79999 13.2 5.06879 13.2 5.39999C13.2 5.73119 12.9312 5.99999 12.6 5.99999Z" fill="#C2C2C5"/>
<path d="M15 8.40001H4.19998C3.86878 8.40001 3.59998 8.13121 3.59998 7.80001C3.59998 7.46881 3.86878 7.20001 4.19998 7.20001H15C15.3312 7.20001 15.6 7.46881 15.6 7.80001C15.6 8.13121 15.3312 8.40001 15 8.40001Z" fill="#C2C2C5"/>
<path d="M13.8 10.8H4.19998C3.86878 10.8 3.59998 10.5312 3.59998 10.2C3.59998 9.86878 3.86878 9.59998 4.19998 9.59998H13.8C14.1312 9.59998 14.4 9.86878 14.4 10.2C14.4 10.5312 14.1312 10.8 13.8 10.8Z" fill="#C2C2C5"/>
<path d="M10.2 13.2H4.19998C3.86878 13.2 3.59998 12.9312 3.59998 12.6C3.59998 12.2688 3.86878 12 4.19998 12H10.2C10.5312 12 10.8 12.2688 10.8 12.6C10.8 12.9312 10.5312 13.2 10.2 13.2Z" fill="#C2C2C5"/>
<path d="M10.2 20.4C10.0392 20.4 9.88204 20.3352 9.76804 20.2164C9.61924 20.0628 9.56404 19.8408 9.62284 19.6356L10.8228 15.4356C10.8504 15.3372 10.9032 15.2484 10.9752 15.1764L19.9752 6.17642C20.2092 5.94242 20.5896 5.94242 20.8236 6.17642L23.8236 9.17642C24.0564 9.40922 24.0576 9.78602 23.8272 10.0212L14.8272 19.1904C14.7492 19.2696 14.6508 19.326 14.5416 19.3524L10.3416 20.3832C10.2948 20.3952 10.2468 20.4 10.1988 20.4H10.2ZM11.934 15.9144L11.0604 18.9708L14.0904 18.2268L22.554 9.60362L20.3988 7.44842L11.9328 15.9144H11.934Z" fill="#C2C2C5"/>
<path d="M7.79997 20.4H4.19998C3.86878 20.4 3.59998 20.1312 3.59998 19.8C3.59998 19.4688 3.86878 19.2 4.19998 19.2H7.79997C8.13117 19.2 8.39997 19.4688 8.39997 19.8C8.39997 20.1312 8.13117 20.4 7.79997 20.4Z" fill="#C2C2C5"/>
</svg>
